<svg id="visual" viewBox="0 0 1920 1080" width="1920" height="1080" xmlns="http://www.w3.org/2000/svg" xmlns:xlink="http://www.w3.org/1999/xlink" version="1.1"><rect x="0" y="0" width="1920" height="1080" fill="#16161A"></rect><path d="M1597 1080L1602.7 1044C1608.3 1008 1619.7 936 1573.8 864C1528 792 1425 720 1352.5 648C1280 576 1238 504 1285 432C1332 360 1468 288 1511.3 216C1554.7 144 1505.3 72 1480.7 36L1456 0L1920 0L1920 36C1920 72 1920 144 1920 216C1920 288 1920 360 1920 432C1920 504 1920 576 1920 648C1920 720 1920 792 1920 864C1920 936 1920 1008 1920 1044L1920 1080Z" fill="#6639ef" stroke-linecap="round" stroke-linejoin="miter"></path></svg>