<svg id="visual" viewBox="0 0 1920 1080" width="1920" height="1080" xmlns="http://www.w3.org/2000/svg" xmlns:xlink="http://www.w3.org/1999/xlink" version="1.1"><rect x="0" y="0" width="1920" height="1080" fill="#16161A"></rect><path d="M325 0L319.3 36C313.7 72 302.3 144 348.2 216C394 288 497 360 569.5 432C642 504 684 576 637 648C590 720 454 792 410.7 864C367.3 936 416.7 1008 441.3 1044L466 1080L0 1080L0 1044C0 1008 0 936 0 864C0 792 0 720 0 648C0 576 0 504 0 432C0 360 0 288 0 216C0 144 0 72 0 36L0 0Z" fill="#6639ef" stroke-linecap="round" stroke-linejoin="miter"></path></svg>