<svg width="479" height="1080" viewBox="0 0 479 1080" fill="none" xmlns="http://www.w3.org/2000/svg">
<path d="M0 1080H479L479 0H0L0 1080Z" fill="#16161A"/>
<path d="M382.024 1080L383.725 1044C385.396 1008 388.797 936 375.101 864C361.435 792 330.701 720 309.068 648C287.435 576 274.903 504 288.927 432C302.951 360 343.532 288 356.452 216C369.402 144 354.662 72 347.321 36L339.951 0H479V36C479 72 479 144 479 216C479 288 479 360 479 432C479 504 479 576 479 648C479 720 479 792 479 864C479 936 479 1008 479 1044V1080H382.024Z" fill="#6639EF"/>
</svg>
