<svg width="479" height="1080" viewBox="0 0 479 1080" fill="none" xmlns="http://www.w3.org/2000/svg">
<path d="M479 0H0V1080H479V0Z" fill="#16161A"/>
<path d="M96.9761 0L95.2753 36C93.6043 72 90.2027 144 103.899 216C117.565 288 148.299 360 169.932 432C191.565 504 204.097 576 190.073 648C176.049 720 135.468 792 122.548 864C109.598 936 124.338 1008 131.679 1044L139.049 1080H0V1044C0 1008 0 936 0 864C0 792 0 720 0 648C0 576 0 504 0 432C0 360 0 288 0 216C0 144 0 72 0 36V0H96.9761Z" fill="#6639EF"/>
</svg>
